<svg height="512pt" viewBox="0 -60 512 512" width="512pt" xmlns="http://www.w3.org/2000/svg"><path d="m512 0-256 15-10.667969 192 10.667969 170.667969 192 14.996093h64zm0 0" fill="#006efd"/><path d="m0 0v392.664062h64l192-14.996093v-362.667969zm0 0" fill="#36cff5"/><path d="m448 0-192 15-8 192 8 185.664062h192zm0 0" fill="#f7f0eb"/><path d="m64 0v392.664062h192v-377.664062zm0 0" fill="#fff5f5"/><path d="m512 0h-90.445312l-165.554688 25.667969-10.667969 85.332031 10.667969 159.601562zm0 0" fill="#0093fd"/><path d="m0 0 256 270.601562v-244.933593l-165.554688-25.667969zm28.464844 7.171875-.011719-.007813zm0 0" fill="#12b0ff"/><path d="m421.554688 0h-165.554688l-10.667969 57.667969 10.667969 117.332031zm0 0" fill="#f7f0eb"/><path d="m90.445312 0 165.554688 175v-175zm18.40625 4.640625-.003906-.007813zm0 0" fill="#fff5f5"/></svg>